<svg width="30" height="32" viewBox="0 0 30 32" fill="none" xmlns="http://www.w3.org/2000/svg">
<path fill-rule="evenodd" clip-rule="evenodd" d="M14.438 18.8131L13.6266 19.5963C13.3783 19.8359 13.2815 20.1853 13.3724 20.5125C13.4631 20.8399 13.7282 21.0956 14.0671 21.1834C14.4062 21.2709 14.768 21.1774 15.0162 20.9377L25.0219 11.279C25.2702 11.0393 25.3673 10.6902 25.2764 10.3627C25.1854 10.0353 24.9206 9.77968 24.5814 9.69191C24.2425 9.60438 23.8805 9.69789 23.6323 9.93752L22.8209 10.7195H22.8212C20.5226 7.44428 17.5974 4.62269 14.2025 2.40648L15.0161 1.62109C15.2649 1.38146 15.3622 1.03205 15.2715 0.70438C15.1809 0.376731 14.916 0.120592 14.5766 0.0325637C14.2374 -0.0554465 13.8752 0.0378253 13.6265 0.277462L3.6208 9.93869C3.37255 10.1783 3.27568 10.5277 3.36661 10.8549C3.45728 11.1823 3.72213 11.438 4.06129 11.5257C4.40045 11.6135 4.76218 11.5198 5.01042 11.2801L5.82402 10.4947V10.495C6.78851 11.8651 7.86253 13.1606 9.03612 14.3691L0.285546 22.8217C0.0380481 23.0623 -0.0575886 23.412 0.0343315 23.7391C0.126492 24.0663 0.392574 24.3212 0.731992 24.4078C1.07166 24.4944 1.43314 24.3995 1.68062 24.1589L10.4312 15.7129C11.6791 16.8482 13.0189 17.885 14.4381 18.8137L14.438 18.8131ZM7.23937 9.12856L12.7889 3.77142C16.2148 5.95181 19.1465 8.78081 21.4076 12.0869L15.858 17.4441C12.4324 15.263 9.50042 12.4342 7.23937 9.12856Z" fill="#36419D"/>
<path fill-rule="evenodd" clip-rule="evenodd" d="M27.5191 25.57C27.4372 25.3984 27.3108 25.2544 27.1542 25.1537C26.9977 25.053 26.8171 24.9997 26.633 25H12.3666C12.1828 25 12.0025 25.0535 11.8462 25.1539C11.6898 25.2546 11.5635 25.3987 11.4818 25.57L9.10419 30.5117C8.9511 30.8305 8.96758 31.2089 9.1479 31.5118C9.32796 31.8149 9.64639 31.9997 9.98902 32H29.0096C29.3527 32 29.6712 31.8155 29.8517 31.5123C30.0323 31.2092 30.049 30.8307 29.8959 30.5117L27.5191 25.57ZM11.5923 29.9407L12.9742 27.0582H26.02L27.4074 29.9407H11.5923Z" fill="#36419D"/>
</svg>
