<svg width="32" height="39" viewBox="0 0 32 39" fill="none" xmlns="http://www.w3.org/2000/svg">
<path d="M23.9365 21.6841H22.1507V18.9361C22.8225 18.097 23.2186 17.1357 23.2991 16.116C24.3903 15.8903 25.2459 15.2948 25.6938 14.433C26.1072 13.6389 26.0844 12.7636 25.6538 12.159C26.8539 9.3118 26.4405 6.54585 24.4648 4.34826C22.5813 2.24987 19.4632 1 16.1264 1C10.3836 1 8.70121 3.58087 8.36793 4.23965C7.87401 4.55093 6.30054 5.64277 5.80657 7.20865C5.2093 9.11286 6.05332 11.4545 6.34054 12.163C5.91552 12.7632 5.89269 13.6385 6.30609 14.4326C6.75394 15.2944 7.60959 15.8902 8.70081 16.1156C8.78133 17.1353 9.1775 18.101 9.84926 18.9357V21.6837H8.06347C4.16979 21.6837 1 24.1742 1 27.2335V37.5487C1 37.7967 1.25837 38 1.57444 38H30.4256C30.7412 38 31 37.797 31 37.5487V27.2335C31 24.1742 27.8298 21.6837 23.9361 21.6837L23.9365 21.6841ZM10.9927 20.0506C11.3889 20.353 11.8195 20.6281 12.3023 20.8626L14.163 21.7697C14.2892 21.833 14.4214 21.8824 14.5536 21.9321L11.9922 23.2405L10.9932 22.0086L10.9927 20.0506ZM17.0455 24.2829H14.9609L14.507 23.033L16.006 22.266L17.5049 23.033L17.0455 24.2829ZM17.4477 21.9321C17.5799 21.8823 17.7116 21.8329 17.8382 21.7697L19.6933 20.8626C20.1756 20.6281 20.6063 20.3527 21.0029 20.0505V22.0041L20.0038 23.236L17.4477 21.9321ZM24.6317 14.0899C24.4651 14.4059 24.0978 14.9067 23.3339 15.1547V12.3258C23.3511 12.3167 23.3739 12.3079 23.3972 12.2988C23.42 12.2896 23.4372 12.2808 23.4605 12.2717C23.5238 12.249 23.5927 12.2311 23.6615 12.2176C23.6788 12.2132 23.696 12.2132 23.7188 12.2084C23.7993 12.1949 23.8795 12.1858 23.96 12.1949C24.0173 12.1993 24.0689 12.2084 24.1266 12.222C24.2416 12.2535 24.3562 12.3167 24.4655 12.4023C24.5056 12.4338 24.546 12.4656 24.5861 12.5062C24.8613 12.7904 24.9763 13.4268 24.6318 14.09L24.6317 14.0899ZM6.92153 7.42112C7.39262 5.92293 9.16684 4.88997 9.18396 4.88086C9.28171 4.82232 9.36183 4.74111 9.39627 4.64637C9.40789 4.61899 10.5279 1.90274 16.1269 1.90274C19.09 1.90274 21.858 3.01281 23.5293 4.86731C25.1889 6.71262 25.6082 9.03203 24.7354 11.446H24.7298C24.6093 11.3963 24.4887 11.3604 24.3797 11.3378H24.3741C24.2591 11.3151 24.1558 11.3016 24.0585 11.2928C24.0012 11.2883 23.9435 11.2883 23.8862 11.2883C23.8461 11.2883 23.8117 11.2928 23.7772 11.2928C23.7484 11.2928 23.72 11.2972 23.6911 11.2972C23.6106 11.3016 23.5305 11.3151 23.45 11.3286C23.4384 11.3286 23.4271 11.333 23.4099 11.333C23.3811 11.3374 23.3526 11.3422 23.3238 11.3466L23.3226 11.1524C23.3226 11.0262 23.2537 10.9088 23.1387 10.8228C23.0237 10.7372 22.8631 10.6966 22.7021 10.7054C14.9953 11.1568 12.0032 8.29136 11.9744 8.26429C11.8422 8.13335 11.6299 8.07041 11.4172 8.09747C11.2049 8.12895 11.0323 8.24635 10.975 8.40876C10.3144 10.0873 9.09147 10.4662 9.05096 10.4798C8.82142 10.543 8.666 10.7142 8.666 10.9084V11.3551C8.64878 11.3507 8.63155 11.3507 8.61433 11.3459C8.55104 11.3324 8.48814 11.3233 8.41925 11.3189C8.37318 11.3145 8.33312 11.3053 8.28705 11.3009C8.17209 11.2918 8.05151 11.2874 7.93093 11.2965C7.74145 11.3101 7.51153 11.3507 7.26476 11.4498C6.95592 10.5342 6.49084 8.80156 6.92146 7.42108L6.92153 7.42112ZM7.36938 14.0899C7.02488 13.4268 7.13384 12.7904 7.42667 12.5017C7.62174 12.3123 7.82284 12.2084 8.04116 12.1905C8.08723 12.186 8.1389 12.1949 8.18456 12.1996C8.24786 12.204 8.31676 12.2131 8.37964 12.2266C8.40849 12.2311 8.43132 12.2402 8.46016 12.2493C8.52345 12.2673 8.58635 12.2899 8.64403 12.3126C8.65565 12.317 8.66686 12.3217 8.67287 12.3261V15.1597C7.90336 14.9067 7.53602 14.4059 7.36937 14.09L7.36938 14.0899ZM9.82133 12.0866V11.1795C10.3036 10.9538 11.1421 10.4351 11.7565 9.35209C13.0428 10.2366 16.2531 11.8653 22.1796 11.6308V15.737C22.1796 17.5281 21.0251 19.1573 19.0899 20.0959L17.2348 21.003C16.8558 21.188 16.4308 21.2781 16.0059 21.2781H15.9942C15.5692 21.2781 15.1442 21.1833 14.7653 21.003L12.9045 20.0959C10.9693 19.1573 9.81484 17.5285 9.81484 15.737L9.81564 12.0865L9.82133 12.0866ZM2.14944 27.2338C2.14944 24.6708 4.80248 22.5863 8.06446 22.5863H10.1091L11.338 24.1068C11.4185 24.2106 11.5503 24.2783 11.6997 24.3054C11.8492 24.328 12.0042 24.3054 12.1364 24.2421L13.4975 23.5472L13.9454 24.7791L12.7969 37.0972H7.92143L7.92063 30.2119C7.92063 29.9639 7.66226 29.7606 7.3462 29.7606C7.03054 29.7606 6.77176 29.9636 6.77176 30.2119L6.77216 37.0972H2.14946L2.14944 27.2338ZM13.9508 37.0969L15.0592 25.1888H16.9427L18.0512 37.0969H13.9508ZM29.852 37.0969H25.2293V30.2116C25.2293 29.9635 24.9709 29.7602 24.6549 29.7602C24.3392 29.7602 24.0804 29.9632 24.0804 30.2116L24.0808 37.0969H19.2053L18.0569 24.7787L18.5048 23.5468L19.8659 24.2417C19.9576 24.2915 20.067 24.3138 20.1759 24.3138C20.216 24.3138 20.2564 24.3094 20.2965 24.3047C20.4459 24.2776 20.5777 24.2055 20.6582 24.1061L21.8872 22.5856H23.9318C27.1938 22.5856 29.8468 24.6701 29.8468 27.2331L29.8464 37.097L29.852 37.0969Z" fill="#CABF5C" stroke="#CABF5C" stroke-width="0.6"/>
</svg>
